<?xml version="1.0" encoding="UTF-8"?>
<!DOCTYPE svg PUBLIC "-//W3C//DTD SVG 1.1//EN" "http://www.w3.org/Graphics/SVG/1.1/DTD/svg11.dtd">
<svg xmlns="http://www.w3.org/2000/svg" version="1.1" width="512px" height="512px" style="shape-rendering:geometricPrecision; text-rendering:geometricPrecision; image-rendering:optimizeQuality; fill-rule:evenodd; clip-rule:evenodd" xmlns:xlink="http://www.w3.org/1999/xlink">
<g><path style="opacity:0.999" fill="#19a1f7" d="M 464.5,199.5 C 469.403,205.909 474.903,211.909 481,217.5C 485.027,222.896 488.527,228.562 491.5,234.5C 498.546,254.433 496.38,273.433 485,291.5C 421.528,355.973 357.694,420.139 293.5,484C 274.746,497.142 254.413,500.142 232.5,493C 224.388,489.624 217.388,484.791 211.5,478.5C 211.5,477.833 211.5,477.167 211.5,476.5C 207.803,458.316 204.97,439.983 203,421.5C 200.801,392.683 203.468,364.349 211,336.5C 213.975,326.06 217.809,316.06 222.5,306.5C 222.5,309.5 222.5,312.5 222.5,315.5C 247.167,315.5 271.833,315.5 296.5,315.5C 296.5,317.833 296.5,320.167 296.5,322.5C 271.833,322.5 247.167,322.5 222.5,322.5C 222.5,335.5 222.5,348.5 222.5,361.5C 254.5,361.5 286.5,361.5 318.5,361.5C 318.5,356.167 318.5,350.833 318.5,345.5C 292.5,345.5 266.5,345.5 240.5,345.5C 240.5,342.5 240.5,339.5 240.5,336.5C 265.5,336.5 290.5,336.5 315.5,336.5C 315.5,324.167 315.5,311.833 315.5,299.5C 285.5,299.5 255.5,299.5 225.5,299.5C 226.833,296.833 228.167,294.167 229.5,291.5C 240.136,290.011 248.636,285.011 255,276.5C 257.076,273.107 258.242,269.44 258.5,265.5C 262.5,265.5 266.5,265.5 270.5,265.5C 270.5,274.833 270.5,284.167 270.5,293.5C 276.5,293.5 282.5,293.5 288.5,293.5C 288.5,270.5 288.5,247.5 288.5,224.5C 303.898,208.28 310.065,188.947 307,166.5C 304.393,151.347 299.393,137.014 292,123.5C 271.38,89.0795 245.547,59.7462 214.5,35.5C 213.599,34.7095 212.932,33.7095 212.5,32.5C 227.57,18.0567 245.57,12.5567 266.5,16C 274.701,17.5989 282.367,20.5989 289.5,25C 348.34,82.6738 406.674,140.84 464.5,199.5 Z M 366.5,194.5 C 385.237,191.455 400.07,197.455 411,212.5C 417.764,227.8 416.764,242.467 408,256.5C 406.127,258.709 403.96,260.542 401.5,262C 406.533,262.171 411.533,262.671 416.5,263.5C 415.405,280.186 407.405,292.353 392.5,300C 364.619,309.712 343.452,301.878 329,276.5C 320.96,252.801 323.626,230.468 337,209.5C 345.294,201.354 355.128,196.354 366.5,194.5 Z M 297.5,219.5 C 303.5,219.5 309.5,219.5 315.5,219.5C 315.5,244.167 315.5,268.833 315.5,293.5C 309.5,293.5 303.5,293.5 297.5,293.5C 297.5,268.833 297.5,244.167 297.5,219.5 Z"/></g>
<g><path style="opacity:0.987" fill="#1ca5f5" d="M 212.5,32.5 C 212.932,33.7095 213.599,34.7095 214.5,35.5C 233.029,60.4166 243.029,88.4166 244.5,119.5C 244.617,152.325 232.617,179.825 208.5,202C 195.333,211.334 183.999,222.501 174.5,235.5C 173.522,235.189 172.855,234.522 172.5,233.5C 177.165,224.993 176.165,217.16 169.5,210C 159.338,205.124 149.338,205.457 139.5,211C 137.383,212.731 135.883,214.898 135,217.5C 133.456,211.627 129.623,208.127 123.5,207C 115.522,205.783 107.856,206.783 100.5,210C 95.2745,214.292 93.2745,219.792 94.5,226.5C 92.5,226.5 90.5,226.5 88.5,226.5C 88.5,231.5 88.5,236.5 88.5,241.5C 89.8734,241.343 91.2068,241.51 92.5,242C 90.0122,245.796 88.5122,249.962 88,254.5C 87.2381,262.215 87.5714,269.881 89,277.5C 96.9486,294.378 109.782,299.545 127.5,293C 129.96,291.542 132.127,289.709 134,287.5C 138.902,292.971 145.068,295.638 152.5,295.5C 150.456,324.17 153.956,352.17 163,379.5C 174.431,414.363 190.598,446.696 211.5,476.5C 211.5,477.167 211.5,477.833 211.5,478.5C 150.535,418.035 89.7013,357.368 29,296.5C 13.9342,277.6 10.2675,256.6 18,233.5C 20.577,227.34 23.9104,221.673 28,216.5C 89.3679,154.965 150.868,93.632 212.5,32.5 Z M 127.5,177.5 C 136.879,177.224 146.212,177.724 155.5,179C 164.558,180.392 170.058,185.558 172,194.5C 173.015,198.44 173.515,202.44 173.5,206.5C 168.167,206.167 162.833,205.833 157.5,205.5C 157.413,200.912 155.413,197.412 151.5,195C 146.08,193.909 140.58,193.409 135,193.5C 129.725,193.384 124.558,193.884 119.5,195C 116.123,197.65 114.457,201.15 114.5,205.5C 109.167,205.833 103.833,206.167 98.5,206.5C 97.3403,193.64 102.674,184.806 114.5,180C 118.965,179.126 123.298,178.293 127.5,177.5 Z"/></g>
<g><path style="opacity:1" fill="#089df6" d="M 288.5,224.5 C 282.926,222.547 276.926,221.88 270.5,222.5C 270.5,229.167 270.5,235.833 270.5,242.5C 267.216,244.117 264.549,246.45 262.5,249.5C 261.167,249.5 259.833,249.5 258.5,249.5C 255.354,234.855 246.354,226.022 231.5,223C 212.791,220.602 199.291,227.768 191,244.5C 184.741,268.833 193.574,284.333 217.5,291C 221.486,291.499 225.486,291.666 229.5,291.5C 228.167,294.167 226.833,296.833 225.5,299.5C 224.5,299.5 223.5,299.5 222.5,299.5C 222.5,301.833 222.5,304.167 222.5,306.5C 217.809,316.06 213.975,326.06 211,336.5C 203.468,364.349 200.801,392.683 203,421.5C 204.97,439.983 207.803,458.316 211.5,476.5C 190.598,446.696 174.431,414.363 163,379.5C 153.956,352.17 150.456,324.17 152.5,295.5C 164.176,295.577 172.342,290.243 177,279.5C 182.251,264.436 181.418,249.769 174.5,235.5C 183.999,222.501 195.333,211.334 208.5,202C 232.617,179.825 244.617,152.325 244.5,119.5C 243.029,88.4166 233.029,60.4166 214.5,35.5C 245.547,59.7462 271.38,89.0795 292,123.5C 299.393,137.014 304.393,151.347 307,166.5C 310.065,188.947 303.898,208.28 288.5,224.5 Z"/></g>
<g><path style="opacity:0.579" fill="#18a1f7" d="M 464.5,199.5 C 472.867,206.7 480.367,214.7 487,223.5C 489.072,226.971 490.572,230.638 491.5,234.5C 488.527,228.562 485.027,222.896 481,217.5C 474.903,211.909 469.403,205.909 464.5,199.5 Z"/></g>
<g><path style="opacity:1" fill="#19a0f8" d="M 399.5,263.5 C 398.336,276.5 391.336,284.333 378.5,287C 362.84,289.423 351.674,283.59 345,269.5C 340.449,255.52 340.449,241.52 345,227.5C 350.042,215.385 359.209,209.385 372.5,209.5C 396.423,211.227 404.257,223.227 396,245.5C 389.235,251.735 382.235,252.069 375,246.5C 373.711,243.649 373.211,240.649 373.5,237.5C 379.167,237.5 384.833,237.5 390.5,237.5C 390.5,232.5 390.5,227.5 390.5,222.5C 377.833,222.5 365.167,222.5 352.5,222.5C 352.5,227.5 352.5,232.5 352.5,237.5C 354.604,237.201 356.604,237.534 358.5,238.5C 356.825,256.502 365.158,265.835 383.5,266.5C 388.997,266.267 394.33,265.267 399.5,263.5 Z"/></g>
<g><path style="opacity:1" fill="#1da6f5" d="M 113.5,221.5 C 118.175,220.339 120.841,222.006 121.5,226.5C 118.167,226.5 114.833,226.5 111.5,226.5C 111.392,224.486 112.058,222.82 113.5,221.5 Z"/></g>
<g><path style="opacity:1" fill="#1da6f5" d="M 150.5,221.5 C 152.527,221.338 154.527,221.505 156.5,222C 157.38,223.356 157.714,224.856 157.5,226.5C 154.5,226.5 151.5,226.5 148.5,226.5C 148.392,224.486 149.058,222.82 150.5,221.5 Z"/></g>
<g><path style="opacity:1" fill="#089cf7" d="M 220.5,237.5 C 230.904,236.441 237.738,240.774 241,250.5C 242.683,258.414 241.183,265.581 236.5,272C 223.238,280.024 213.738,276.857 208,262.5C 205.853,250.793 210.019,242.46 220.5,237.5 Z"/></g>
<g><path style="opacity:1" fill="#1ca5f5" d="M 163.5,255.5 C 159.622,262.311 156.956,269.645 155.5,277.5C 152.927,278.555 150.261,278.722 147.5,278C 145.667,277.5 144.5,276.333 144,274.5C 142.599,266.585 142.099,258.585 142.5,250.5C 136.833,250.5 131.167,250.5 125.5,250.5C 125.666,257.841 125.5,265.174 125,272.5C 122.367,277.732 118.201,279.565 112.5,278C 106.492,273.811 103.825,267.977 104.5,260.5C 104.563,254.644 106.23,249.311 109.5,244.5C 110.665,243.416 111.998,242.583 113.5,242C 127.833,241.333 142.167,241.333 156.5,242C 160.518,245.534 162.852,250.034 163.5,255.5 Z"/></g>
<g><path style="opacity:1" fill="#18a0f7" d="M 270.5,242.5 C 270.5,244.833 270.5,247.167 270.5,249.5C 267.833,249.5 265.167,249.5 262.5,249.5C 264.549,246.45 267.216,244.117 270.5,242.5 Z"/></g>
<g><path style="opacity:1" fill="#089df6" d="M 163.5,255.5 C 164.206,262.676 162.706,269.343 159,275.5C 157.887,276.305 156.721,276.972 155.5,277.5C 156.956,269.645 159.622,262.311 163.5,255.5 Z"/></g>
</svg>
